<?xml version="1.0" encoding="UTF-8" standalone="no"?>
<!-- Generator: Adobe Illustrator 14.0.0, SVG Export Plug-In . SVG Version: 6.00 Build 43363)  -->
<svg xmlns:dc="http://purl.org/dc/elements/1.1/" xmlns:cc="http://creativecommons.org/ns#" xmlns:rdf="http://www.w3.org/1999/02/22-rdf-syntax-ns#" xmlns:svg="http://www.w3.org/2000/svg" xmlns="http://www.w3.org/2000/svg" xmlns:sodipodi="http://sodipodi.sourceforge.net/DTD/sodipodi-0.dtd" xmlns:inkscape="http://www.inkscape.org/namespaces/inkscape" version="1.1" x="0px" y="0px" width="2500px" height="1251px" viewBox="0 0 2500 1251" enable-background="new 0 0 2500 1251" xml:space="preserve" id="svg2" inkscape:version="0.91 r13725" sodipodi:docname="mars_map_complete (复件).svg"><metadata id="metadata1017"><rdf:RDF><cc:Work rdf:about=""><dc:format>image/svg+xml</dc:format><dc:type rdf:resource="http://purl.org/dc/dcmitype/StillImage"/></cc:Work></rdf:RDF></metadata><defs id="defs1015"/><sodipodi:namedview pagecolor="#ffffff" bordercolor="#666666" borderopacity="1" objecttolerance="10" gridtolerance="10" guidetolerance="10" inkscape:pageopacity="0" inkscape:pageshadow="2" inkscape:window-width="1303" inkscape:window-height="744" id="namedview1013" showgrid="false" inkscape:zoom="0.2656" inkscape:cx="1271.1736" inkscape:cy="852.48671" inkscape:window-x="65" inkscape:window-y="24" inkscape:window-maximized="1" inkscape:current-layer="svg2"/><g id="地名"><text style="font-size:30.05559921px;font-family:MicrosoftYaHei;letter-spacing:65.98100281;fill:#ffffff" id="text264" letter-spacing="65.981" font-size="30.0556" transform="matrix(0.6779,-0.7356,0.7328,0.6804,246.2192,778.8105)">塔尔西斯高原</text>
<text style="font-size:30.11560059px;font-family:MicrosoftYaHei;letter-spacing:66.2460022;fill:#ffffff" id="text266" letter-spacing="66.246" font-size="30.1156" transform="matrix(0.9963,-9.099985e-4,9.066266e-4,1,240.417,912.002)">代达罗斯高原</text>
<text style="font-size:30.11560059px;font-family:MicrosoftYaHei;letter-spacing:66.2460022;fill:#ffffff" id="text268" letter-spacing="66.246" font-size="30.1156" transform="matrix(0.9963,-9.099985e-4,9.066266e-4,1,332.4834,119.1211)">阿耳卡狄亚海</text>
<text style="font-size:30.11560059px;font-family:MicrosoftYaHei;letter-spacing:66.2460022;fill:#ffffff" id="text270" letter-spacing="66.246" font-size="30.1156" transform="matrix(0.9963,-9.099985e-4,9.066266e-4,1,1165.6206,141.708)">阿西达里亚海</text>
<text style="font-size:30.11560059px;font-family:MicrosoftYaHei;letter-spacing:66.2460022;fill:#ffffff" id="text272" letter-spacing="66.246" font-size="30.1156" transform="matrix(0.9963,-9.099985e-4,9.066266e-4,1,2014.4834,166.2588)">乌托邦海</text>
<text style="font-size:25.50779915px;font-family:MicrosoftYaHei;letter-spacing:30.11199951;fill:#ffffff" id="text274" letter-spacing="30.112" font-size="25.5078" transform="matrix(0.9963,-0.0042,0.0042,1,23.3828,384.0586)">亚马逊海</text>
<text style="font-size:18.46310043px;font-family:MicrosoftYaHei;letter-spacing:51.08300018;fill:#ffffff" id="text276" letter-spacing="51.083" font-size="18.4631" transform="matrix(0.8458,-0.5305,0.5285,0.8489,56.2808,674.3184)">美杜莎湾</text>
<text style="font-size:18.0447998px;font-family:MicrosoftYaHei;fill:#ffffff" id="text278" font-size="18.0448" transform="matrix(0.9963,-9.099985e-4,9.066266e-4,1,914.0547,970.0908)">阿耳古瑞海</text>
<text style="font-size:26.72979927px;font-family:MicrosoftYaHei;fill:#ffffff" id="text280" font-size="26.7298" transform="matrix(0.9963,-9.099985e-4,9.066266e-4,1,1687.8535,929.668)">希拉斯湖</text>
<text style="font-size:14.19449997px;font-family:MicrosoftYaHei;fill:#ffffff" id="text282" font-size="14.1945" transform="matrix(0.7064,0.7078,-0.7051,0.7091,1966.4805,592.4277)">无忧湾</text>
<text style="font-size:22.07839966px;font-family:MicrosoftYaHei;fill:#ffffff" id="text284" font-size="22.0784" transform="matrix(0.9963,-9.099985e-4,9.066266e-4,1,1071.4644,756.1777)">克珊忒湾</text>
<text style="font-size:22.07839966px;font-family:MicrosoftYaHei;fill:#ffffff" id="text286" font-size="22.0784" transform="matrix(0.9963,-9.099985e-4,9.066266e-4,1,807.8062,394.1284)">卡塞湾</text>
<text style="font-size:22.07839966px;font-family:MicrosoftYaHei;fill:#ffffff" id="text288" font-size="22.0784" transform="matrix(0.9963,-9.099985e-4,9.066266e-4,1,907.6021,495.2632)">克里斯湾</text>
<text style="font-size:22.07839966px;font-family:MicrosoftYaHei;fill:#ffffff" id="text290" font-size="22.0784" transform="matrix(0.9963,-9.099985e-4,9.066266e-4,1,1049.7744,569.6743)">荧惑群岛</text>
<text style="font-size:22.07839966px;font-family:MicrosoftYaHei;letter-spacing:39.14500046;fill:#ffffff" id="text292" letter-spacing="39.145" font-size="22.0784" transform="matrix(0.9963,-9.099985e-4,9.066266e-4,1,1416.1895,310.1025)">陨坑群岛</text>
<text style="font-size:22.07839966px;font-family:MicrosoftYaHei;letter-spacing:4.01499987;fill:#ffffff" id="text294" letter-spacing="4.015" font-size="22.0784" transform="matrix(0.9963,-9.099985e-4,9.066266e-4,1,1818.7441,520.5854)">伊希地湾</text>
<text style="font-size:14.96529961px;font-family:MicrosoftYaHei;letter-spacing:2.00699997;fill:#ffffff" id="text296" letter-spacing="2.007" font-size="14.9653" transform="matrix(0.9963,-9.099985e-4,9.066266e-4,1,2220.0537,470.1006)">埃律西昂山</text>
<text style="font-size:17.23839951px;font-family:MicrosoftYaHei;letter-spacing:3.01099992;fill:#ffffff" id="text298" letter-spacing="3.011" font-size="17.2384" transform="matrix(0.9963,-9.099985e-4,9.066266e-4,1,2201.1279,544.1201)">埃律西昂岛</text>
<text style="font-size:17.2105999px;font-family:MicrosoftYaHei;letter-spacing:17.00799942;fill:#ffffff" id="text300" letter-spacing="17.008" font-size="17.2106" transform="matrix(0.7483,-0.6626,0.6602,0.7511,2339.3232,520.5869)">奥尔库斯群岛</text>
<text style="font-size:22.07839966px;font-family:MicrosoftYaHei;fill:#ffffff" id="text302" font-size="22.0784" transform="matrix(0.9963,-9.099985e-4,9.066266e-4,1,565.1655,269.3257)">亚拔湾</text>
<text style="font-size:25.25139999px;font-family:MicrosoftYaHei;letter-spacing:55.20500183;fill:#ffffff" id="text304" letter-spacing="55.205" font-size="25.2514" transform="matrix(0.9963,-9.099985e-4,9.066266e-4,1,1157.3374,981.1563)">诺亚高原</text>
<text style="font-size:25.25139999px;font-family:MicrosoftYaHei;letter-spacing:30.11199951;fill:#ffffff" id="text306" letter-spacing="30.112" font-size="25.2514" transform="matrix(0.9963,-9.099985e-4,9.066266e-4,1,1284.1787,846.3838)">子午线平原</text>
<text style="font-size:25.22599983px;font-family:MicrosoftYaHei;letter-spacing:30.0510006;fill:#ffffff" id="text308" letter-spacing="30.051" font-size="25.226" transform="matrix(0.8508,-0.5223,0.5204,0.8539,1466.415,765.6973)">阿拉比亚高地</text>
<text style="font-size:25.21890068px;font-family:MicrosoftYaHei;letter-spacing:55.06200027;fill:#ffffff" id="text310" letter-spacing="55.062" font-size="25.2189" transform="matrix(0.8053,-0.591,0.5888,0.8083,1349.9199,714.7188)">赛东尼亚海岸</text>
<text style="font-size:25.24020004px;font-family:MicrosoftYaHei;letter-spacing:55.15499878;fill:#ffffff" id="text312" letter-spacing="55.155" font-size="25.2402" transform="matrix(0.9351,0.3464,-0.3452,0.9385,2060.4473,664.0732)">艾俄洛斯海岸</text>
<text style="font-size:25.25139999px;font-family:MicrosoftYaHei;letter-spacing:55.20500183;fill:#ffffff" id="text314" letter-spacing="55.205" font-size="25.2514" transform="matrix(0.9963,-9.099985e-4,9.066266e-4,1,1851.1787,1159.3398)">普罗米修斯高地</text>
<text style="font-size:25.25139999px;font-family:MicrosoftYaHei;letter-spacing:42.15599823;fill:#ffffff" id="text316" letter-spacing="42.156" font-size="25.2514" transform="matrix(0.9963,-9.099985e-4,9.066266e-4,1,2086.6846,1044.3447)">西米利亚沙漠</text>
<text style="font-size:18.44890022px;font-family:MicrosoftYaHei;letter-spacing:40.14899826;fill:#ffffff" id="text318" letter-spacing="40.149" font-size="18.4489" transform="matrix(0.9963,-9.099985e-4,9.066266e-4,1,1197.7373,1124.874)">马里亚高地</text>
<text style="font-size:19.14999962px;font-family:MicrosoftYaHei;letter-spacing:41.15299988;fill:#ffffff" id="text320" letter-spacing="41.153" font-size="19.15" transform="matrix(0.9963,-9.099985e-4,9.066266e-4,1,2057.2373,865.7627)">西国高地</text>
<text style="font-size:19.14299965px;font-family:MicrosoftYaHei;letter-spacing:30.09000015;fill:#ffffff" id="text322" letter-spacing="30.09" font-size="19.143" transform="matrix(0.9468,0.3123,-0.3112,0.9504,1783.8994,669.9521)">泰瑞纳高地</text>
<text style="font-size:25.63890076px;font-family:MicrosoftYaHei;letter-spacing:56.20800018;fill:#ffffff" id="text324" letter-spacing="56.208" font-size="25.6389" transform="matrix(0.9963,-9.099985e-4,9.066266e-4,1,94.1533,1132.7422)">塞壬沙漠</text>
<text style="font-size:15.21959972px;font-family:MicrosoftYaHei;fill:#ffffff" id="text326" font-size="15.2196" transform="matrix(0.9963,0,0,1,103.144,459.3569)">米兰科维奇群岛</text>
<text style="font-size:12.50389957px;font-family:MicrosoftYaHei;letter-spacing:2.00699997;fill:#ffffff" id="text328" letter-spacing="2.007" font-size="12.5039" transform="matrix(0.9963,-9.099985e-4,9.066266e-4,1,477.6548,388.7183)">亚拔山</text>
<text style="font-size:12.50389957px;font-family:MicrosoftYaHei;letter-spacing:2.00699997;fill:#ffffff" id="text330" letter-spacing="2.007" font-size="12.5039" transform="matrix(0.9963,-9.099985e-4,9.066266e-4,1,477.645,588.7388)">艾斯克雷尔斯山</text>
<text style="font-size:12.50389957px;font-family:MicrosoftYaHei;letter-spacing:2.00699997;fill:#ffffff" id="text332" letter-spacing="2.007" font-size="12.5039" transform="matrix(0.9963,-9.099985e-4,9.066266e-4,1,435.1318,636.4648)">帕弗尼斯山</text>
<text style="font-size:12.50389957px;font-family:MicrosoftYaHei;letter-spacing:2.00699997;fill:#ffffff" id="text334" letter-spacing="2.007" font-size="12.5039" transform="matrix(0.9963,-9.099985e-4,9.066266e-4,1,392.6489,694.4375)">阿尔西亚山</text>
<text style="font-size:12.50339985px;font-family:MicrosoftYaHei;letter-spacing:2.00699997;fill:#ffffff" id="text336" letter-spacing="2.007" font-size="12.5034" transform="matrix(0.9914,0.099,-0.0986,0.9951,623.1538,639.1836)">张杭峡谷</text>
<text style="font-size:16.26589966px;font-family:MicrosoftYaHei;letter-spacing:3.00900006;fill:#ffffff" id="text338" letter-spacing="3.009" font-size="16.2659" transform="matrix(0.9412,0.3292,-0.328,0.9447,335.582,373.9912)">奥林匹斯半岛</text>
<text style="font-size:16.27260017px;font-family:MicrosoftYaHei;letter-spacing:3.01099992;fill:#ffffff" id="text340" letter-spacing="3.011" font-size="16.2726" transform="matrix(0.9963,0.0055,-0.0055,1,295.3525,507.4678)">奥林匹斯山</text>
<text style="font-size:25.63890076px;font-family:MicrosoftYaHei;letter-spacing:15.05599976;fill:#ffffff" id="text342" letter-spacing="15.056" font-size="25.6389" transform="matrix(0.9963,-9.099985e-4,9.066266e-4,1,744.1304,572.104)">月神半岛</text>
<text style="font-size:17.26399994px;font-family:MicrosoftYaHei;letter-spacing:3.00500011;fill:#ffffff" id="text344" letter-spacing="3.005" font-size="17.264" transform="matrix(0.8606,-0.5058,0.5039,0.8638,649.9932,396.3584)">马留提斯半岛</text>
<text style="font-size:25.63730049px;font-family:MicrosoftYaHei;letter-spacing:117.42099762;fill:#ffffff" id="text346" letter-spacing="117.421" font-size="25.6373" transform="matrix(0.9882,0.1279,-0.1274,0.9918,528.4229,719.9766)">水手峡湾</text>
<text style="font-size:21.11930084px;font-family:MicrosoftYaHei;letter-spacing:29.07999992;fill:#ffffff" id="text348" letter-spacing="29.08" font-size="21.1193" transform="matrix(0.9304,-0.359,0.3576,0.9339,556.2671,1112.0742)">阿俄尼亚沙漠</text>
<text style="font-size:45.1733017px;font-family:MicrosoftYaHei;fill:#ffffff" id="text350" font-size="45.1733" transform="matrix(0.9963,0,0,1,1284.1348,62.8755)">北极</text>
<text style="font-size:45.1733017px;font-family:MicrosoftYaHei;fill:#ffffff" id="text352" font-size="45.1733" transform="matrix(0.9963,0,0,1,1284.1348,1207.2666)">南极</text>
</g></svg>
